<svg width="520" height="520" viewBox="0 0 520 520" fill="none" xmlns="http://www.w3.org/2000/svg">
<circle cx="260" cy="260" r="255" fill="#121212" stroke="white" stroke-width="10"/>
<path d="M271.75 293C273.417 294.333 274.25 296.083 274.25 298.25C274.25 300.417 273.5 302.25 272 303.75H236.5L250.75 351.25C251.083 352.417 251.25 353.917 251.25 355.75C251.25 357.583 250.083 359.833 247.75 362.5C245.417 365.167 243 366.5 240.5 366.5C235.833 366.5 232.167 365.333 229.5 363L211.75 303.75H148L135.5 337.75C131.167 349.25 124.917 359.167 116.75 367.5C108.583 375.833 98 380 85 380C75.1667 380 67.5 377.417 62 372.25C56.3333 367.083 53.5 359.583 53.5 349.75C53.5 339.917 55.9167 331.083 60.75 323.25C65.4167 315.25 71.6667 309 79.5 304.5C95.1667 295.5 112.667 291 132 291L168.5 188C170.167 183.167 171.917 179.583 173.75 177.25C168.583 159.917 166 150.417 166 148.75C166 146.917 167.167 144.917 169.5 142.75C172 140.417 174.5 139.25 177 139.25C181.833 139.25 185.583 140.417 188.25 142.75L232.5 291L265.25 290.75C268.083 290.75 270.25 291.5 271.75 293ZM85 369.5C97.5 369.5 108.333 356.917 117.5 331.75L127.25 304C108.917 304 94.3333 308.333 83.5 317C72.8333 325.667 67.5 337.083 67.5 351.25C67.5 357.083 69.0833 361.583 72.25 364.75C75.5833 367.917 79.8333 369.5 85 369.5ZM183.25 196.5L152.75 291H207.75L183.25 196.5ZM451.529 291C452.363 290 453.779 289.5 455.779 289.5C457.946 289.5 459.696 290.25 461.029 291.75C462.363 293.25 463.029 296.083 463.029 300.25C463.029 304.417 461.613 310 458.779 317C456.113 323.833 452.113 330.75 446.779 337.75C441.446 344.583 434.029 350.25 424.529 354.75C415.196 359.25 404.696 361.5 393.029 361.5C366.029 361.5 344.363 352.833 328.029 335.5C311.696 318 303.529 293.167 303.529 261C303.529 228.667 311.196 204.417 326.529 188.25C342.029 171.917 362.279 163.75 387.279 163.75C403.446 163.75 416.113 167.917 425.279 176.25C434.446 184.583 439.029 193.833 439.029 204C439.029 208.167 437.779 211.5 435.279 214C432.779 216.5 430.279 217.75 427.779 217.75C423.113 217.75 419.946 216.75 418.279 214.75C419.279 212.25 419.779 209.167 419.779 205.5C419.779 196.5 416.863 189.333 411.029 184C405.363 178.667 397.029 176 386.029 176C369.529 176 355.446 183.917 343.779 199.75C332.279 215.417 326.529 236.25 326.529 262.25C326.529 288.25 332.946 309.25 345.779 325.25C358.613 341.083 374.029 349 392.029 349C410.029 349 424.446 343.583 435.279 332.75C446.113 321.75 451.529 307.833 451.529 291Z" fill="white"/>
</svg>
